<?xml version="1.0" encoding="utf-8"?>
<!-- Generator: Adobe Illustrator 27.4.1, SVG Export Plug-In . SVG Version: 6.00 Build 0)  -->
<svg version="1.1" id="Reference" xmlns="http://www.w3.org/2000/svg" xmlns:xlink="http://www.w3.org/1999/xlink" x="0px" y="0px"
	 viewBox="0 0 220.3 220.3" style="enable-background:new 0 0 220.3 220.3;" xml:space="preserve">
<style type="text/css">
	.st0{fill:#B3A7FE;}
	.st1{fill:#BC70C4;stroke:#FF00FF;stroke-miterlimit:10;}
	.st2{fill:#5B1B89;stroke:#FF00FF;stroke-miterlimit:10;}
	.st3{fill:#CEC3EA;stroke:#FF00FF;stroke-miterlimit:10;}
	.st4{opacity:0.15;fill:#FFFFFF;}
	.st5{fill:#FFFFFF;}
	.st6{fill:#BC70C4;}
	.st7{fill:#E2D942;}
	.st8{fill:#859E1E;}
	.st9{stroke:#000000;stroke-width:0.25;stroke-miterlimit:10;}
	.st10{fill:#FFFFFF;stroke:#000000;stroke-width:0.25;stroke-miterlimit:10;}
	.st11{fill:#BC70C4;stroke:#000000;stroke-width:0.25;stroke-miterlimit:10;}
</style>
<g>
	<path d="M192.65,0.15h-165c-15.18,0-27.5,12.32-27.5,27.5v165c0,15.18,12.32,27.5,27.5,27.5h165c15.18,0,27.5-12.32,27.5-27.5v-165
		C220.15,12.47,207.83,0.15,192.65,0.15z M115.65,11.15h41.25V52.4h-41.25V11.15z M11.15,27.65c0-9.09,7.41-16.5,16.5-16.5h77V52.4
		h-93.5V27.65z M11.15,63.4H156.9v41.25H11.15V63.4z M104.65,115.65v41.25H63.4v-41.25H104.65z M52.4,209.15H27.65
		c-9.09,0-16.5-7.41-16.5-16.5V167.9H52.4V209.15z M52.4,156.9H11.15v-41.25H52.4V156.9z M209.15,192.65c0,9.09-7.41,16.5-16.5,16.5
		H63.4V167.9h145.75V192.65z M209.15,156.9h-93.5v-41.25h93.5V156.9z M209.15,104.65H167.9V63.4h41.25V104.65z M209.15,52.4H167.9
		V11.15h24.75c9.09,0,16.5,7.41,16.5,16.5V52.4z"/>
	<path class="st5" d="M52.4,167.9v41.25H27.65c-9.09,0-16.5-7.41-16.5-16.5V167.9H52.4z"/>
	<rect x="63.4" y="115.65" class="st5" width="41.25" height="41.25"/>
	<rect x="167.9" y="63.4" class="st5" width="41.25" height="41.25"/>
	<rect x="115.65" y="11.15" class="st5" width="41.25" height="41.25"/>
	<path class="st6" d="M209.15,27.65V52.4H167.9V11.15h24.75C201.74,11.15,209.15,18.56,209.15,27.65z"/>
	<rect x="11.15" y="115.65" class="st6" width="41.25" height="41.25"/>
	<path class="st6" d="M209.15,167.9v24.75c0,9.09-7.41,16.5-16.5,16.5H63.4V167.9H209.15z"/>
	<rect x="115.65" y="115.65" class="st6" width="93.5" height="41.25"/>
	<rect x="11.15" y="63.4" class="st6" width="145.75" height="41.25"/>
	<path class="st6" d="M104.65,11.15V52.4h-93.5V27.65c0-9.09,7.41-16.5,16.5-16.5H104.65z"/>
</g>
</svg>
